<svg xmlns="http://www.w3.org/2000/svg" xmlns:xlink="http://www.w3.org/1999/xlink" width="140" zoomAndPan="magnify" viewBox="0 0 104.88 30.000001" height="40" preserveAspectRatio="xMidYMid meet" version="1.0"><defs><g/><clipPath id="id1"><path d="M 2.769531 4.148438 L 24.738281 4.148438 L 24.738281 25.683594 L 2.769531 25.683594 Z M 2.769531 4.148438 " clip-rule="nonzero"/></clipPath><clipPath id="id2"><path d="M 14 6 L 27 6 L 27 14 L 14 14 Z M 14 6 " clip-rule="nonzero"/></clipPath><clipPath id="id3"><path d="M 27.289062 9.75 L 19.835938 16.257812 L 13.902344 9.460938 L 21.355469 2.953125 Z M 27.289062 9.75 " clip-rule="nonzero"/></clipPath><clipPath id="id4"><path d="M 27.289062 9.75 L 19.835938 16.257812 L 13.902344 9.460938 L 21.355469 2.953125 Z M 27.289062 9.75 " clip-rule="nonzero"/></clipPath></defs><g clip-path="url(#id1)"><path fill="#00c2cb" d="M 24.71875 24.902344 C 24.65625 24.730469 24.472656 24.644531 24.304688 24.703125 C 20.933594 25.878906 17.625 23.515625 17.59375 23.488281 C 17.507812 23.429688 17.402344 23.410156 17.304688 23.441406 C 11.09375 25.367188 6.195312 22.183594 5.488281 21.472656 C 5.199219 21.183594 4.839844 20.902344 4.484375 20.625 C 4.101562 20.324219 3.574219 19.917969 3.523438 19.738281 C 3.179688 18.625 3.78125 16.933594 4.46875 14.980469 C 4.792969 14.066406 5.128906 13.125 5.398438 12.140625 C 6.035156 9.84375 7.582031 5.851562 10.746094 4.976562 C 12.628906 4.457031 13.054688 5.097656 13.699219 6.0625 C 14.292969 6.953125 14.554688 7.730469 14.375 8.082031 C 14.230469 8.378906 13.765625 8.96875 13.0625 9.109375 C 12.503906 9.21875 11.910156 9.015625 11.3125 8.503906 C 11.1875 8.398438 11.007812 8.398438 10.882812 8.503906 C 10.878906 8.511719 10.246094 9.054688 9.382812 9.214844 C 9.214844 9.246094 9.09375 9.402344 9.121094 9.574219 C 9.339844 11.289062 9.902344 15.84375 9.902344 16.398438 C 9.902344 17.121094 9.1875 17.480469 8.96875 17.578125 C 8.804688 17.652344 8.726562 17.839844 8.796875 18.007812 C 8.871094 18.171875 9.0625 18.25 9.226562 18.175781 C 9.984375 17.855469 10.46875 17.25 10.542969 16.574219 C 10.984375 16.273438 12.628906 15.269531 14.3125 15.636719 C 15.457031 15.886719 16.414062 16.71875 17.164062 18.117188 C 17.226562 18.230469 17.335938 18.289062 17.457031 18.289062 C 17.507812 18.289062 17.5625 18.273438 17.605469 18.25 C 17.765625 18.164062 17.824219 17.964844 17.738281 17.808594 C 17.410156 17.191406 17.035156 16.671875 16.625 16.246094 C 17.179688 15.472656 19.382812 12.96875 23.558594 15.371094 C 23.71875 15.464844 23.914062 15.410156 24.007812 15.253906 C 24.097656 15.097656 24.046875 14.898438 23.886719 14.808594 C 22.105469 13.785156 20.441406 13.46875 18.941406 13.875 C 17.449219 14.28125 16.535156 15.289062 16.144531 15.804688 C 15.632812 15.398438 15.0625 15.125 14.449219 14.992188 C 12.8125 14.636719 11.273438 15.367188 10.515625 15.8125 C 10.378906 14.347656 9.9375 10.820312 9.804688 9.769531 C 10.378906 9.613281 10.839844 9.332031 11.09375 9.152344 C 11.792969 9.679688 12.496094 9.875 13.191406 9.738281 C 14.140625 9.546875 14.75 8.785156 14.960938 8.367188 C 15.335938 7.609375 14.777344 6.496094 14.246094 5.691406 C 13.457031 4.539062 12.738281 3.757812 10.566406 4.355469 C 7.101562 5.3125 5.445312 9.535156 4.773438 11.972656 C 4.503906 12.929688 4.175781 13.863281 3.859375 14.761719 C 3.121094 16.832031 2.496094 18.609375 2.898438 19.929688 C 3.011719 20.285156 3.417969 20.621094 4.082031 21.136719 C 4.417969 21.402344 4.765625 21.671875 5.03125 21.933594 C 5.34375 22.246094 6.773438 23.316406 9.082031 24.046875 C 10.96875 24.636719 13.929688 25.125 17.351562 24.105469 C 17.882812 24.46875 19.882812 25.6875 22.304688 25.6875 C 23.011719 25.6875 23.761719 25.582031 24.519531 25.320312 C 24.691406 25.253906 24.777344 25.070312 24.71875 24.902344 Z M 7.859375 19.582031 C 7.738281 19.445312 7.535156 19.429688 7.398438 19.542969 C 7.257812 19.660156 7.246094 19.863281 7.359375 20.003906 C 7.4375 20.09375 9.253906 22.1875 12.324219 22.617188 L 12.371094 22.617188 C 12.527344 22.617188 12.667969 22.496094 12.691406 22.332031 C 12.71875 22.15625 12.59375 21.992188 12.417969 21.964844 C 9.601562 21.585938 7.878906 19.609375 7.859375 19.582031 Z M 15.191406 21.820312 C 14.632812 21.953125 14.074219 22.023438 13.523438 22.039062 C 13.34375 22.039062 13.199219 22.1875 13.199219 22.367188 C 13.199219 22.542969 13.351562 22.6875 13.523438 22.6875 L 13.527344 22.6875 C 14.125 22.675781 14.738281 22.601562 15.335938 22.453125 C 15.515625 22.414062 15.621094 22.234375 15.574219 22.058594 C 15.546875 21.886719 15.371094 21.78125 15.191406 21.820312 Z M 21.113281 21.355469 C 21.015625 21.203125 20.816406 21.164062 20.664062 21.261719 C 20.515625 21.363281 20.472656 21.558594 20.566406 21.710938 C 20.605469 21.769531 21.453125 23.042969 23.382812 23.042969 C 23.613281 23.042969 23.855469 23.023438 24.113281 22.984375 C 24.289062 22.957031 24.414062 22.792969 24.382812 22.617188 C 24.355469 22.4375 24.191406 22.3125 24.011719 22.347656 C 22.007812 22.648438 21.152344 21.40625 21.113281 21.355469 Z M 21.113281 21.355469 " fill-opacity="1" fill-rule="nonzero"/></g><g clip-path="url(#id2)"><g clip-path="url(#id3)"><g clip-path="url(#id4)"><path fill="#00c2cb" d="M 26.03125 10.644531 C 26.074219 10.695312 26.070312 10.773438 26.019531 10.820312 L 23.265625 13.261719 C 23.210938 13.308594 23.136719 13.304688 23.089844 13.253906 C 23.046875 13.203125 23.050781 13.125 23.101562 13.078125 L 25.855469 10.636719 C 25.910156 10.589844 25.984375 10.59375 26.03125 10.644531 Z M 22.632812 12.386719 C 22.6875 12.425781 22.765625 12.414062 22.804688 12.355469 L 25.746094 8.152344 C 25.785156 8.097656 25.769531 8.019531 25.714844 7.980469 C 25.667969 7.949219 25.605469 7.953125 25.5625 7.992188 C 25.554688 7.996094 25.550781 8.003906 25.542969 8.011719 L 22.601562 12.21875 C 22.5625 12.273438 22.578125 12.351562 22.632812 12.386719 Z M 22.824219 9.492188 C 22.847656 9.425781 22.816406 9.355469 22.753906 9.332031 C 22.707031 9.316406 22.660156 9.328125 22.628906 9.355469 C 22.613281 9.371094 22.601562 9.386719 22.59375 9.40625 L 21.695312 11.789062 C 21.671875 11.851562 21.703125 11.921875 21.769531 11.945312 C 21.832031 11.96875 21.902344 11.933594 21.925781 11.871094 Z M 20.542969 11.867188 C 20.613281 11.875 20.675781 11.828125 20.683594 11.757812 L 21.347656 6.40625 C 21.355469 6.335938 21.308594 6.277344 21.242188 6.269531 C 21.207031 6.265625 21.171875 6.277344 21.144531 6.300781 C 21.125 6.320312 21.109375 6.347656 21.105469 6.378906 L 20.4375 11.730469 C 20.429688 11.800781 20.476562 11.859375 20.542969 11.867188 Z M 19.363281 11.867188 C 19.429688 11.859375 19.476562 11.792969 19.464844 11.726562 L 19.136719 9.507812 C 19.125 9.4375 19.0625 9.394531 18.996094 9.40625 C 18.972656 9.410156 18.953125 9.417969 18.933594 9.433594 C 18.902344 9.460938 18.886719 9.503906 18.894531 9.546875 L 19.222656 11.765625 C 19.234375 11.832031 19.296875 11.878906 19.363281 11.867188 Z M 18.253906 12.269531 C 18.316406 12.238281 18.339844 12.164062 18.3125 12.105469 L 16.199219 7.660156 C 16.171875 7.597656 16.097656 7.574219 16.035156 7.605469 C 16.023438 7.609375 16.015625 7.613281 16.007812 7.621094 C 15.964844 7.65625 15.953125 7.71875 15.976562 7.769531 L 18.089844 12.210938 C 18.117188 12.273438 18.191406 12.296875 18.253906 12.269531 Z M 17.203125 13.039062 C 17.253906 12.996094 17.257812 12.917969 17.214844 12.867188 L 14.964844 10.289062 C 14.917969 10.238281 14.839844 10.230469 14.789062 10.277344 C 14.738281 10.320312 14.730469 10.398438 14.777344 10.449219 L 17.027344 13.03125 C 17.074219 13.082031 17.148438 13.085938 17.203125 13.039062 Z M 17.203125 13.039062 " fill-opacity="1" fill-rule="nonzero"/></g></g></g><g fill="#ffffff" fill-opacity="1"><g transform="translate(26.62151, 20.81695)"><g><path d="M 13.625 -7.3125 C 13.695312 -6.914062 13.734375 -6.507812 13.734375 -6.09375 C 13.734375 -4.882812 13.453125 -3.769531 12.890625 -2.75 C 12.335938 -1.738281 11.566406 -0.9375 10.578125 -0.34375 C 9.585938 0.25 8.476562 0.546875 7.25 0.546875 C 6.007812 0.546875 4.867188 0.25 3.828125 -0.34375 C 2.796875 -0.945312 1.972656 -1.753906 1.359375 -2.765625 C 0.753906 -3.785156 0.453125 -4.894531 0.453125 -6.09375 C 0.453125 -7.289062 0.753906 -8.398438 1.359375 -9.421875 C 1.972656 -10.441406 2.796875 -11.25 3.828125 -11.84375 C 4.867188 -12.4375 6.007812 -12.734375 7.25 -12.734375 C 8.550781 -12.734375 9.707031 -12.410156 10.71875 -11.765625 C 11.726562 -11.117188 12.53125 -10.234375 13.125 -9.109375 L 9.703125 -8.1875 C 9.398438 -8.570312 9.035156 -8.867188 8.609375 -9.078125 C 8.191406 -9.296875 7.738281 -9.40625 7.25 -9.40625 C 6.675781 -9.40625 6.144531 -9.257812 5.65625 -8.96875 C 5.164062 -8.675781 4.78125 -8.273438 4.5 -7.765625 C 4.21875 -7.253906 4.078125 -6.695312 4.078125 -6.09375 C 4.078125 -5.5 4.21875 -4.945312 4.5 -4.4375 C 4.78125 -3.925781 5.164062 -3.519531 5.65625 -3.21875 C 6.144531 -2.914062 6.675781 -2.765625 7.25 -2.765625 C 7.851562 -2.765625 8.398438 -2.925781 8.890625 -3.25 C 9.378906 -3.582031 9.75 -4.03125 10 -4.59375 L 6.484375 -4.59375 L 6.484375 -7.3125 Z M 13.625 -7.3125 "/></g></g></g><g fill="#ffffff" fill-opacity="1"><g transform="translate(37.979415, 20.81695)"><g><path d="M 8.3125 -4.890625 L 8.3125 0.234375 L 4.6875 0.234375 L 4.6875 -4.890625 L -0.15625 -12.4375 L 4.078125 -12.4375 L 6.484375 -8.515625 L 8.90625 -12.4375 L 13.125 -12.4375 Z M 8.3125 -4.890625 "/></g></g></g><g fill="#ffffff" fill-opacity="1"><g transform="translate(48.128992, 20.81695)"><g><path d="M 12.53125 0.234375 L 11.921875 -6.390625 L 9.8125 0.234375 L 6.796875 0.234375 L 4.6875 -6.390625 L 4.078125 0.234375 L 0.453125 0.234375 L 1.65625 -12.4375 L 5.28125 -12.4375 L 8.3125 -4.890625 L 11.328125 -12.4375 L 14.953125 -12.4375 L 16.15625 0.234375 Z M 12.53125 0.234375 "/></g></g></g><g fill="#ffffff" fill-opacity="1"><g transform="translate(61.903559, 20.81695)"><g><path d="M 6.796875 -12.4375 C 7.867188 -12.4375 8.765625 -12.257812 9.484375 -11.90625 C 10.203125 -11.550781 10.738281 -11.050781 11.09375 -10.40625 C 11.445312 -9.769531 11.625 -9.035156 11.625 -8.203125 C 11.625 -7.378906 11.453125 -6.625 11.109375 -5.9375 C 10.773438 -5.25 10.289062 -4.703125 9.65625 -4.296875 C 9.019531 -3.890625 8.269531 -3.6875 7.40625 -3.6875 L 4.6875 -3.6875 L 4.6875 0.234375 L 1.0625 0.234375 L 1.0625 -12.4375 Z M 6.453125 -6.703125 C 6.910156 -6.703125 7.28125 -6.8125 7.5625 -7.03125 C 7.851562 -7.257812 8 -7.601562 8 -8.0625 C 8 -8.5 7.851562 -8.832031 7.5625 -9.0625 C 7.28125 -9.289062 6.910156 -9.40625 6.453125 -9.40625 L 4.6875 -9.40625 L 4.6875 -6.703125 Z M 6.453125 -6.703125 "/></g></g></g><g fill="#ffffff" fill-opacity="1"><g transform="translate(71.15552, 20.81695)"><g><path d="M 9.515625 0.234375 L 1.0625 0.234375 L 1.0625 -12.4375 L 4.6875 -12.4375 L 4.6875 -3.078125 L 9.515625 -3.078125 Z M 9.515625 0.234375 "/></g></g></g><g fill="#ffffff" fill-opacity="1"><g transform="translate(78.290025, 20.81695)"><g><path d="M 10.0625 0.234375 L 9.25 -1.859375 L 4.34375 -1.859375 L 3.53125 0.234375 L -0.15625 0.234375 L 5.09375 -12.4375 L 8.5 -12.4375 L 13.734375 0.234375 Z M 6.796875 -8.203125 L 5.390625 -4.59375 L 8.1875 -4.59375 Z M 6.796875 -8.203125 "/></g></g></g><g fill="#ffffff" fill-opacity="1"><g transform="translate(89.049517, 20.81695)"><g><path d="M 13.125 0.234375 L 9.515625 0.234375 L 4.6875 -6.703125 L 4.6875 0.234375 L 1.0625 0.234375 L 1.0625 -12.4375 L 4.6875 -12.4375 L 9.515625 -5.484375 L 9.515625 -12.4375 L 13.125 -12.4375 Z M 13.125 0.234375 "/></g></g></g></svg>